<?xml version="1.0" encoding="utf-8"?>
<!-- Generator: Adobe Illustrator 27.9.0, SVG Export Plug-In . SVG Version: 6.00 Build 0)  -->
<svg version="1.1" id="Layer_1" xmlns="http://www.w3.org/2000/svg" xmlns:xlink="http://www.w3.org/1999/xlink" x="0px" y="0px"
	 viewBox="0 0 283.46 283.46" style="enable-background:new 0 0 283.46 283.46;" xml:space="preserve">
<style type="text/css">
	.st0{fill:none;stroke:#00A0A0;stroke-width:5;stroke-linecap:round;stroke-linejoin:round;stroke-miterlimit:10;}
</style>
<g>
	<g>
		<path class="st0" d="M237.23,74.07c-5.98-4.94-13.03-4.86-20.03-3.74c-17.63,2.82-31.87,12.05-44.6,24.11
			c-12.02,11.39-20.68,24.96-26.16,40.47c-2.66,7.53-4.49,15.33-4.64,23.47c-0.17,9.25,0.16,18.33,3.48,27.14
			c5.77,15.3,16.59,24.68,32.52,28.13c10,2.17,19.99,1.68,30.07,0.09c12.75-2.02,24.88-5.77,36.25-11.85
			c4.74-2.54,9.25-5.49,12.45-9.99c3.27-4.6,2.79-10.26-1-14.53c-5.01-5.63-11.54-8.74-18.35-11.34
			c-7.27-2.77-14.91-5.47-22.52-7.11c-0.71-0.15-6.23-1.54-8.56-1.57"/>
		<path class="st0" d="M278.7,142.14c-9.79,2.07-19.56,4.23-29.38,6.19c-8.15,1.63-16.35,3.02-24.53,4.52
			c-3.69,0.68-7.03,1.5-10.67,2.37c-1.14,0.27-7.99,2.12-7.99,2.12"/>
	</g>
	<g>
		<path class="st0" d="M31.93,89.27c0.1,0.72,4.12,69.48,4.69,76.91c0.5,6.61,2.58,41.55,2.45,45.39"/>
		<path class="st0" d="M42.33,189c0,0,19.3-0.31,20.87-0.21c5.76,0.36,11.4,1.35,17.07,2.44c9.53,1.84,18.8,4.49,27.9,7.8
			c9.47,3.44,18.69,7.44,27.92,11.47c5.07,2.21,10.2,4.29,15.49,5.94"/>
		<path class="st0" d="M38.12,189.52c3.76-0.38,16.56-2.25,21.98-3.5c4.26-0.98,8.9-2.9,12.51-4.67c15.3-7.48,27-18.11,38.28-30.75
			c8.21-9.21,14.78-19.53,18.43-31.55c1.73-5.71,3.18-11.45,2.98-17.38c-0.51-15.28-7.4-26.8-23.2-31.93
			c-7.66-2.49-15.5-3.03-23.57-2.57c-22.62,1.27-42.22,10-59.81,23.69c-6.64,5.17-12.33,11.3-16.83,18.53
			c-3,4.83-5.05,9.74-3.68,15.53"/>
	</g>
</g>
</svg>
